<?xml version="1.0" encoding="utf-8"?>
<!-- Generator: Adobe Illustrator 24.3.0, SVG Export Plug-In . SVG Version: 6.00 Build 0)  -->
<svg version="1.0" id="katman_1" xmlns="http://www.w3.org/2000/svg" xmlns:xlink="http://www.w3.org/1999/xlink" x="0px" y="0px"
	 viewBox="0 0 841.89 595.28" style="enable-background:new 0 0 841.89 595.28;" xml:space="preserve">
<style type="text/css">
	.st0{fill-rule:evenodd;clip-rule:evenodd;fill:#006F53;}
	.st1{fill:#D1D71E;}
	.st2{fill:none;stroke:#D1D71E;stroke-width:9.098;stroke-linecap:round;}
</style>
<path class="st0" d="M339.25,481.89c6.06,0,10.49,1.28,13.28,3.85c2.8,2.57,4.2,6.56,4.2,11.98v29.03h-9.09v-27.8
	c0-6.12-3.43-9.18-10.3-9.18c-2.97-0.03-5.88,0.79-8.39,2.36c0.43,1.83,0.64,3.71,0.61,5.59v29.03h-9.09v-27.8
	c0-6.12-3.43-9.18-10.3-9.18c-3.13,0-6.24,0.56-9.17,1.66v35.32h-9.08v-40.31c3.01-1.49,6.19-2.6,9.47-3.31
	c3.51-0.81,7.09-1.24,10.69-1.26c5.67,0,9.88,1.1,12.63,3.31C329.25,483,334.21,481.88,339.25,481.89z M387.86,528.07
	c-6.93,0-12.13-1.98-15.62-5.95c-3.48-3.96-5.23-9.74-5.23-17.31c0-15.33,6.93-22.99,20.78-22.99c6.98,0,12.23,1.97,15.75,5.9
	c3.52,3.93,5.28,9.63,5.28,17.09c0,7.46-1.82,13.2-5.45,17.22C399.74,526.06,394.57,528.07,387.86,528.07z M387.77,520.29
	c7.96,0,11.94-5.16,11.94-15.47c0-5.13-0.94-8.96-2.83-11.49c-1.89-2.53-4.92-3.81-9.09-3.81c-4.21,0-7.23,1.3-9.04,3.89
	c-1.82,2.6-2.72,6.4-2.72,11.41c0,5.01,0.94,8.84,2.81,11.49c1.88,2.66,4.85,3.97,8.94,3.96V520.29z M439.16,481.9
	c6.46,0,11.36,1.95,14.71,5.86c3.35,3.9,5.02,9.43,5.03,16.59c0,8.63-2,14.73-6.01,18.32s-9.1,5.39-15.28,5.4
	c-12.4,0-18.61-3.32-18.61-9.96v-52.83h9v19.34c1.81-0.86,3.72-1.53,5.67-1.97c1.8-0.46,3.64-0.71,5.5-0.76V481.9z M436.91,520.11
	c4.72,0,8.03-1.37,9.92-4.11c1.89-2.74,2.83-6.5,2.83-11.28c0-4.89-0.99-8.62-2.99-11.19c-1.99-2.57-4.94-3.85-8.87-3.85
	c-1.71,0.01-3.41,0.23-5.06,0.65c-1.66,0.4-3.25,1.04-4.72,1.89v23.62c-0.02,2.83,2.94,4.25,8.88,4.25V520.11z M469.17,467.57h9.69
	v8.31h-9.69V467.57z M469.42,483.13h9.09l0.09,43.63h-9.17V483.13z M491.39,526.76v-60.52h9v60.5L491.39,526.76z M530.83,481.78
	c6.75,0,11.7,2.2,14.84,6.61c3.14,4.41,4.69,10.57,4.63,18.49h-30.47c0.29,4.31,1.55,7.59,3.78,9.84c2.23,2.24,5.39,3.37,9.47,3.36
	c4.9,0.01,9.72-1.23,14.02-3.58v8.57c-4.5,2-9.66,3-15.46,3c-6.52,0-11.64-2-15.36-5.99c-3.72-3.99-5.58-9.66-5.58-17
	c0-7.52,1.76-13.27,5.27-17.26C519.49,483.83,524.44,481.81,530.83,481.78z M530.57,489.34c-3.06,0-5.45,0.82-7.18,2.45
	c-1.73,1.63-2.85,4.4-3.37,8.3h21.03c-0.41-3.73-1.45-6.45-3.12-8.17C536.25,490.21,533.8,489.34,530.57,489.34z M443.78,129.64
	c-10.02-2.48-17.74-3.72-23.14-3.72c-40.33,0-73.03,32.59-73.03,72.78c0,40.19,32.71,72.78,73.03,72.78s73.04-32.59,73.04-72.78
	c0-5.87-0.71-11.72-2.11-17.43l58.06-15.64c4.71,17.88,5.6,36.55,2.61,54.8c-2.98,18.24-9.77,35.66-19.92,51.12L436.17,449.8H347.1
	l63.29-116.67c0.35-0.64-0.67-2.06-1.52-2.13c-67.63-6.14-120.61-62.82-120.61-131.82c0-73.11,59.47-132.38,132.83-132.38
	c13.43-0.02,26.78,2,39.61,5.98L443.78,129.64z"/>
<path class="st1" d="M420.2,238.73c22.11,0,40.03-17.92,40.03-40.03s-17.92-40.03-40.03-40.03c-22.11,0-40.03,17.92-40.03,40.03
	S398.09,238.73,420.2,238.73z"/>
<path class="st2" d="M539.39,152.3c-12.48-31.74-37.01-57.26-68.24-70.96 M489.34,171.41c-6.94-17.36-20.3-31.38-37.31-39.13
	L489.34,171.41z M514.82,160.49c-9.8-24.08-28.32-43.57-51.86-54.59L514.82,160.49z"/>
</svg>
