<svg id="Layer_1" data-name="Layer 1" xmlns="http://www.w3.org/2000/svg" viewBox="0 0 820 820"><defs><style>.cls-1{fill:#ffc403;}</style></defs><rect class="cls-1" width="820" height="820"/><path d="M364.51,361.57v93.64H338.89V402.7L321.82,428H308.44L289.65,402.7v52.51H266.17V361.57H289.8l27,36.72L341,361.57Zm7.4,21.21V361.57h87.37v21.21H428.69v72.43H402.64V382.78Zm183.71-21.21v93.64H534.14l-44-53.51v53.51H466.68V361.57H490l42.12,51.66V361.57ZM410,553c-75.65,0-146.94-14.14-200.73-39.83C153,486.32,122,449.68,122,410s31-76.32,87.27-103.19C263.06,281.12,334.35,267,410,267s146.94,14.14,200.73,39.83C667,333.68,698,370.33,698,410s-31,76.32-87.27,103.19C556.94,538.88,485.65,553,410,553Zm0-264.94c-72.57,0-140.63,13.41-191.64,37.77C169.83,349,143.1,378.91,143.1,410s26.73,61,75.26,84.15c51,24.36,119.07,37.77,191.64,37.77s140.63-13.41,191.64-37.77C650.17,471,676.9,441.09,676.9,410s-26.73-61-75.26-84.15C550.63,301.49,482.57,288.08,410,288.08Z"/></svg>